<svg width="192" height="192" viewBox="0 0 192 192" fill="none" xmlns="http://www.w3.org/2000/svg">
<path d="M100.414 68.2379C106.559 55.7595 108.096 40.6693 106.559 22C106.559 22 126.767 35.9294 131.622 62.3373C137.17 92.5176 125.099 113.308 110.88 127.631C104.543 134.016 95.5163 140.787 92.9236 149.493C90.0082 159.282 91.9634 170 91.9634 170C91.9634 170 67.3809 163.422 60.083 140.013C55.3365 124.788 59.2188 110.316 66.5167 97.8379C70.7303 90.6333 78.6159 83.1346 83.1292 77.0405C88.6105 69.6391 91.9634 64.6588 91.9634 56.7268L100.414 68.2379Z" stroke="black" stroke-width="12" stroke-linejoin="round"/>
</svg>
