<svg width="192" height="192" viewBox="0 0 192 192" fill="none" xmlns="http://www.w3.org/2000/svg">
<path d="M22 82V99.7139C22 105.237 26.4772 109.714 32 109.714H40.6684M51.446 82V98.6386C51.446 98.7087 51.447 98.7743 51.4517 98.8443C51.5266 99.9446 52.5138 109.714 63.9558 109.714C76.0806 109.714 76.0806 98.7438 76.0806 98.7438V82M93.4018 82V109.714M107.259 82H129.305C130.164 82 130.623 83.0119 130.057 83.6585L108.71 108.055C108.144 108.702 108.603 109.714 109.463 109.714H131.508M143.056 109.714L146.377 102.978M170 109.714L166.772 102.978M146.377 102.978L156.72 82L166.772 102.978M146.377 102.978H166.772" stroke="black" stroke-width="8" stroke-linecap="round" stroke-linejoin="round"/>
</svg>
